<?xml version="1.0" standalone="no"?><!DOCTYPE svg PUBLIC "-//W3C//DTD SVG 1.1//EN" "http://www.w3.org/Graphics/SVG/1.1/DTD/svg11.dtd"><svg t="1734412430759" class="icon" viewBox="0 0 1024 1024" version="1.1" xmlns="http://www.w3.org/2000/svg" p-id="1701" width="81" height="81" xmlns:xlink="http://www.w3.org/1999/xlink"><path d="M767.018667 728.746667l-186.154667 186.154666a85.333333 85.333333 0 0 1-60.330667 25.002667h-7.338666a42.666667 42.666667 0 0 1-42.666667-42.666667v-242.602666L314.496 810.666667a42.666667 42.666667 0 0 1-63.914667-56.32l3.541334-4.010667 216.405333-216.362667v-41.386666L254.122667 276.138667a42.666667 42.666667 0 0 1-3.541334-56.32l3.541334-4.010667a42.666667 42.666667 0 0 1 60.373333 0l156.032 156.032V129.237333a42.666667 42.666667 0 0 1 42.666667-42.666666h7.296a85.333333 85.333333 0 0 1 60.373333 25.002666l186.154667 186.197334a42.666667 42.666667 0 0 1 0 60.330666L611.84 513.28l155.136 155.178667a42.666667 42.666667 0 0 1 0 60.330666z m-196.608 75.946666l75.946666-75.946666a42.666667 42.666667 0 0 0 0-60.330667l-75.946666-75.946667a8.533333 8.533333 0 0 0-14.549334 6.016v200.149334a8.533333 8.533333 0 0 0 14.549334 6.058666z m75.946666-506.922666l-75.946666-75.946667a8.533333 8.533333 0 0 0-14.549334 6.058667v200.149333a8.533333 8.533333 0 0 0 14.549334 6.016l75.946666-75.946667a42.666667 42.666667 0 0 0 0-60.330666z" fill="#bfbfbf" p-id="1702"></path></svg>