<?xml version="1.0" standalone="no"?><!DOCTYPE svg PUBLIC "-//W3C//DTD SVG 1.1//EN" "http://www.w3.org/Graphics/SVG/1.1/DTD/svg11.dtd"><svg t="1734412785619" class="icon" viewBox="0 0 1024 1024" version="1.1" xmlns="http://www.w3.org/2000/svg" p-id="7547" xmlns:xlink="http://www.w3.org/1999/xlink" width="81" height="81"><path d="M512.213333 414.08c-138.88 0-263.253333 71.04-330.453333 165.973333-6.826667 8.96-5.973333 19.626667 1.28 28.8l68.906667 78.933334c9.173333 11.306667 21.333333 10.026667 30.08-1.493334 53.76-68.906667 140.586667-118.4 229.973333-117.333333 90.24-1.066667 176.64 50.133333 230.826667 119.04 8.746667 10.666667 20.266667 10.666667 29.226666-0.64l68.906667-78.506667c7.466667-8.533333 8.32-19.84 1.28-28.8-66.986667-95.573333-191.573333-165.973333-330.24-165.973333z" p-id="7548" fill="#1296db"></path><path d="M1019.733333 372.266667C915.2 224 718.506667 114.56 512.213333 114.56S109.226667 224 4.48 372.266667c-6.4 8.533333-5.973333 20.266667 1.28 29.44l61.013333 72.106666c8.746667 10.026667 21.76 9.6 30.08-0.426666 109.226667-133.973333 253.44-204.373333 414.933334-204.373334s307.2 71.04 416 205.013334c7.893333 9.173333 20.48 9.173333 28.586666-1.066667l61.653334-71.04c7.466667-8.96 7.466667-20.906667 1.28-29.44z" p-id="7549" fill="#1296db"></path><path d="M512 802.56m-106.88 0a106.88 106.88 0 1 0 213.76 0 106.88 106.88 0 1 0-213.76 0Z" p-id="7550" fill="#1296db"></path></svg>